<svg width="32" height="35" viewBox="0 0 32 35" fill="none" xmlns="http://www.w3.org/2000/svg">
<g filter="url(#filter0_dd_1_255)">
<path d="M11 3.75C7.54875 3.75 4.75 6.54875 4.75 10V20C4.75 23.4512 7.54875 26.25 11 26.25H21C24.4512 26.25 27.25 23.4512 27.25 20V10C27.25 6.54875 24.4512 3.75 21 3.75H11ZM23.5 6.25C24.19 6.25 24.75 6.81 24.75 7.5C24.75 8.19 24.19 8.75 23.5 8.75C22.81 8.75 22.25 8.19 22.25 7.5C22.25 6.81 22.81 6.25 23.5 6.25ZM16 8.75C19.4512 8.75 22.25 11.5488 22.25 15C22.25 18.4512 19.4512 21.25 16 21.25C12.5488 21.25 9.75 18.4512 9.75 15C9.75 11.5488 12.5488 8.75 16 8.75ZM16 11.25C15.0054 11.25 14.0516 11.6451 13.3483 12.3483C12.6451 13.0516 12.25 14.0054 12.25 15C12.25 15.9946 12.6451 16.9484 13.3483 17.6517C14.0516 18.3549 15.0054 18.75 16 18.75C16.9946 18.75 17.9484 18.3549 18.6517 17.6517C19.3549 16.9484 19.75 15.9946 19.75 15C19.75 14.0054 19.3549 13.0516 18.6517 12.3483C17.9484 11.6451 16.9946 11.25 16 11.25Z" fill="white"/>
</g>
<defs>
<filter id="filter0_dd_1_255" x="-3" y="0" width="38" height="38" filterUnits="userSpaceOnUse" color-interpolation-filters="sRGB">
<feFlood flood-opacity="0" result="BackgroundImageFix"/>
<feColorMatrix in="SourceAlpha" type="matrix" values="0 0 0 0 0 0 0 0 0 0 0 0 0 0 0 0 0 0 127 0" result="hardAlpha"/>
<feOffset dy="4"/>
<feGaussianBlur stdDeviation="2"/>
<feComposite in2="hardAlpha" operator="out"/>
<feColorMatrix type="matrix" values="0 0 0 0 0 0 0 0 0 0 0 0 0 0 0 0 0 0 0.25 0"/>
<feBlend mode="normal" in2="BackgroundImageFix" result="effect1_dropShadow_1_255"/>
<feColorMatrix in="SourceAlpha" type="matrix" values="0 0 0 0 0 0 0 0 0 0 0 0 0 0 0 0 0 0 127 0" result="hardAlpha"/>
<feOffset dy="4"/>
<feGaussianBlur stdDeviation="2"/>
<feComposite in2="hardAlpha" operator="out"/>
<feColorMatrix type="matrix" values="0 0 0 0 0 0 0 0 0 0 0 0 0 0 0 0 0 0 0.25 0"/>
<feBlend mode="normal" in2="effect1_dropShadow_1_255" result="effect2_dropShadow_1_255"/>
<feBlend mode="normal" in="SourceGraphic" in2="effect2_dropShadow_1_255" result="shape"/>
</filter>
</defs>
</svg>
